<svg xmlns="http://www.w3.org/2000/svg" width="180" height="80" viewBox="0 0 180 80"><g><ellipse cx="90" cy="40" rx="22" ry="6" fill="#fff" fill-opacity=".24"/><line x1="19" y1="30" x2="62" y2="30" stroke="#ff9100" stroke-opacity="0.55" stroke-width="1.4"/><line x1="12" y1="14" x2="53" y2="14" stroke="#ff9100" stroke-opacity="0.51" stroke-width="1.4"/><line x1="64" y1="68" x2="95" y2="68" stroke="#ff9100" stroke-opacity="0.20" stroke-width="1.4"/><line x1="53" y1="37" x2="75" y2="37" stroke="#ff9100" stroke-opacity="0.32" stroke-width="1.4"/><line x1="54" y1="45" x2="75" y2="45" stroke="#ff9100" stroke-opacity="0.65" stroke-width="1.4"/><line x1="28" y1="17" x2="86" y2="17" stroke="#ff9100" stroke-opacity="0.54" stroke-width="1.4"/><line x1="7" y1="70" x2="61" y2="70" stroke="#ff9100" stroke-opacity="0.51" stroke-width="1.4"/><line x1="28" y1="13" x2="48" y2="13" stroke="#ff9100" stroke-opacity="0.50" stroke-width="1.4"/><line x1="37" y1="18" x2="81" y2="18" stroke="#ff9100" stroke-opacity="0.26" stroke-width="1.4"/><line x1="39" y1="17" x2="92" y2="17" stroke="#ff9100" stroke-opacity="0.65" stroke-width="1.4"/><line x1="13" y1="21" x2="68" y2="21" stroke="#ff9100" stroke-opacity="0.51" stroke-width="1.4"/><line x1="47" y1="22" x2="71" y2="22" stroke="#ff9100" stroke-opacity="0.49" stroke-width="1.4"/><line x1="7" y1="14" x2="64" y2="14" stroke="#ff9100" stroke-opacity="0.30" stroke-width="1.4"/><line x1="54" y1="53" x2="121" y2="53" stroke="#ff9100" stroke-opacity="0.36" stroke-width="1.4"/><line x1="58" y1="47" x2="99" y2="47" stroke="#ff9100" stroke-opacity="0.35" stroke-width="1.4"/><line x1="23" y1="60" x2="85" y2="60" stroke="#ff9100" stroke-opacity="0.62" stroke-width="1.4"/><line x1="38" y1="15" x2="89" y2="15" stroke="#ff9100" stroke-opacity="0.46" stroke-width="1.4"/><line x1="57" y1="31" x2="93" y2="31" stroke="#ff9100" stroke-opacity="0.53" stroke-width="1.4"/><line x1="15" y1="14" x2="65" y2="14" stroke="#ff9100" stroke-opacity="0.42" stroke-width="1.4"/><line x1="43" y1="58" x2="70" y2="58" stroke="#ff9100" stroke-opacity="0.71" stroke-width="1.4"/><line x1="5" y1="36" x2="65" y2="36" stroke="#ff9100" stroke-opacity="0.22" stroke-width="1.4"/><line x1="40" y1="45" x2="79" y2="45" stroke="#ff9100" stroke-opacity="0.58" stroke-width="1.4"/></g></svg>