<svg xmlns="http://www.w3.org/2000/svg" width="180" height="80" viewBox="0 0 180 80"><g><ellipse cx="90" cy="40" rx="22" ry="6" fill="#fff" fill-opacity=".24"/><line x1="162" y1="24" x2="120" y2="24" stroke="#18d8d2" stroke-opacity="0.25" stroke-width="1.4"/><line x1="120" y1="55" x2="97" y2="55" stroke="#18d8d2" stroke-opacity="0.26" stroke-width="1.4"/><line x1="179" y1="61" x2="148" y2="61" stroke="#18d8d2" stroke-opacity="0.41" stroke-width="1.4"/><line x1="173" y1="11" x2="124" y2="11" stroke="#18d8d2" stroke-opacity="0.44" stroke-width="1.4"/><line x1="139" y1="41" x2="64" y2="41" stroke="#18d8d2" stroke-opacity="0.65" stroke-width="1.4"/><line x1="177" y1="15" x2="145" y2="15" stroke="#18d8d2" stroke-opacity="0.61" stroke-width="1.4"/><line x1="149" y1="54" x2="98" y2="54" stroke="#18d8d2" stroke-opacity="0.41" stroke-width="1.4"/><line x1="163" y1="67" x2="99" y2="67" stroke="#18d8d2" stroke-opacity="0.24" stroke-width="1.4"/><line x1="127" y1="26" x2="57" y2="26" stroke="#18d8d2" stroke-opacity="0.22" stroke-width="1.4"/><line x1="163" y1="49" x2="139" y2="49" stroke="#18d8d2" stroke-opacity="0.56" stroke-width="1.4"/><line x1="145" y1="31" x2="83" y2="31" stroke="#18d8d2" stroke-opacity="0.23" stroke-width="1.4"/><line x1="141" y1="67" x2="86" y2="67" stroke="#18d8d2" stroke-opacity="0.64" stroke-width="1.4"/><line x1="123" y1="48" x2="71" y2="48" stroke="#18d8d2" stroke-opacity="0.72" stroke-width="1.4"/><line x1="139" y1="41" x2="112" y2="41" stroke="#18d8d2" stroke-opacity="0.72" stroke-width="1.4"/><line x1="173" y1="47" x2="109" y2="47" stroke="#18d8d2" stroke-opacity="0.51" stroke-width="1.4"/><line x1="151" y1="38" x2="98" y2="38" stroke="#18d8d2" stroke-opacity="0.38" stroke-width="1.4"/><line x1="169" y1="66" x2="143" y2="66" stroke="#18d8d2" stroke-opacity="0.27" stroke-width="1.4"/><line x1="127" y1="48" x2="75" y2="48" stroke="#18d8d2" stroke-opacity="0.57" stroke-width="1.4"/><line x1="160" y1="54" x2="101" y2="54" stroke="#18d8d2" stroke-opacity="0.66" stroke-width="1.4"/><line x1="140" y1="42" x2="103" y2="42" stroke="#18d8d2" stroke-opacity="0.27" stroke-width="1.4"/><line x1="151" y1="43" x2="101" y2="43" stroke="#18d8d2" stroke-opacity="0.55" stroke-width="1.4"/><line x1="179" y1="61" x2="117" y2="61" stroke="#18d8d2" stroke-opacity="0.49" stroke-width="1.4"/></g></svg>