<svg xmlns="http://www.w3.org/2000/svg" width="1920" height="600" viewBox="0 0 1920 600"><g filter="url(#g)"><polyline points="1920,8 1735,20 1610,3 1519,-4 1301,-3 1191,-10 1091,8 904,-10 699,8" fill="none" stroke="#00bfff" stroke-opacity="0.18" stroke-width="1"/><polyline points="1920,66 1790,36 1640,11 1522,-9 1303,18 1197,39 1009,61 893,51 751,66" fill="none" stroke="#00bfff" stroke-opacity="0.26" stroke-width="2"/><polyline points="1920,108 1723,103 1611,124 1453,109 1262,98 1085,121 984,105 893,133 698,108" fill="none" stroke="#00bfff" stroke-opacity="0.33999999999999997" stroke-width="3"/><polyline points="1920,73 1705,82 1609,69 1411,88 1293,98 1203,77 1063,103 922,96 830,73" fill="none" stroke="#00bfff" stroke-opacity="0.42" stroke-width="1"/><polyline points="1920,146 1826,126 1715,134 1498,140 1358,138 1251,135 1112,147 999,163 872,146" fill="none" stroke="#00bfff" stroke-opacity="0.18" stroke-width="2"/><polyline points="1920,124 1820,128 1661,135 1533,154 1375,173 1277,152 1084,139 953,150 734,124" fill="none" stroke="#00bfff" stroke-opacity="0.26" stroke-width="3"/><polyline points="1920,184 1737,205 1625,232 1447,211 1264,211 1121,208 981,216 887,212 713,184" fill="none" stroke="#00bfff" stroke-opacity="0.33999999999999997" stroke-width="1"/><polyline points="1920,141 1802,183 1656,183 1497,175 1385,166 1223,144 1119,117 932,138 733,141" fill="none" stroke="#00bfff" stroke-opacity="0.42" stroke-width="2"/><polyline points="1920,172 1767,229 1661,228 1512,206 1320,210 1135,237 951,217 787,199 631,172" fill="none" stroke="#00bfff" stroke-opacity="0.18" stroke-width="3"/><polyline points="1920,142 1786,228 1654,207 1527,179 1425,154 1220,139 1031,129 938,152 758,142" fill="none" stroke="#00bfff" stroke-opacity="0.26" stroke-width="1"/><polyline points="1920,290 1707,273 1546,253 1434,272 1269,288 1149,264 952,264 826,281 638,290" fill="none" stroke="#00bfff" stroke-opacity="0.33999999999999997" stroke-width="2"/><polyline points="1920,300 1787,314 1627,335 1411,329 1296,304 1136,309 1014,292 903,274 757,300" fill="none" stroke="#00bfff" stroke-opacity="0.42" stroke-width="3"/><polyline points="1920,317 1779,295 1568,296 1379,273 1245,280 1032,289 875,295 768,308 671,317" fill="none" stroke="#00bfff" stroke-opacity="0.18" stroke-width="1"/><polyline points="1920,373 1719,351 1550,356 1444,384 1278,360 1131,378 1006,356 891,372 676,373" fill="none" stroke="#00bfff" stroke-opacity="0.26" stroke-width="2"/><polyline points="1920,438 1705,388 1602,403 1505,398 1353,426 1146,412 961,436 745,464 593,438" fill="none" stroke="#00bfff" stroke-opacity="0.33999999999999997" stroke-width="3"/><polyline points="1920,329 1809,404 1707,419 1513,417 1406,394 1268,368 1132,345 1026,318 846,329" fill="none" stroke="#00bfff" stroke-opacity="0.42" stroke-width="1"/><polyline points="1920,374 1709,388 1600,381 1489,403 1317,375 1109,375 981,371 769,396 644,374" fill="none" stroke="#00bfff" stroke-opacity="0.18" stroke-width="2"/><polyline points="1920,365 1771,437 1648,421 1502,399 1384,374 1264,350 1153,345 1037,364 941,365" fill="none" stroke="#00bfff" stroke-opacity="0.26" stroke-width="3"/><polyline points="1920,351 1779,461 1669,448 1578,436 1438,408 1236,396 1141,374 945,349 791,351" fill="none" stroke="#00bfff" stroke-opacity="0.33999999999999997" stroke-width="1"/><polyline points="1920,431 1774,497 1669,512 1509,492 1343,466 1206,460 1013,432 846,458 732,431" fill="none" stroke="#00bfff" stroke-opacity="0.42" stroke-width="2"/><polyline points="1920,505 1718,496 1522,506 1350,509 1172,537 980,536 837,513 677,504 469,505" fill="none" stroke="#00bfff" stroke-opacity="0.18" stroke-width="3"/><polyline points="1920,498 1714,537 1526,520 1352,517 1247,509 1134,491 963,497 867,481 723,498" fill="none" stroke="#00bfff" stroke-opacity="0.26" stroke-width="1"/></g><defs><filter id="g"><feGaussianBlur stdDeviation="0.4"/></filter></defs></svg>