<svg xmlns="http://www.w3.org/2000/svg" width="1920" height="600" viewBox="0 0 1920 600"><g filter="url(#g)"><polyline points="0,-73 128,26 230,2 344,-3 448,1 592,-25 704,-26 901,-50 1052,-73" fill="none" stroke="#ff8a00" stroke-opacity="0.18" stroke-width="1"/><polyline points="0,-47 198,31 319,17 424,25 615,0 761,-26 885,-36 1082,-55 1202,-47" fill="none" stroke="#ff8a00" stroke-opacity="0.26" stroke-width="2"/><polyline points="0,100 136,54 274,49 388,56 494,64 599,75 741,78 940,99 1110,100" fill="none" stroke="#ff8a00" stroke-opacity="0.33999999999999997" stroke-width="3"/><polyline points="0,121 206,100 372,87 508,103 660,80 826,85 1042,113 1219,131 1423,121" fill="none" stroke="#ff8a00" stroke-opacity="0.42" stroke-width="1"/><polyline points="0,106 108,108 305,90 482,71 697,69 797,83 906,103 1076,96 1255,106" fill="none" stroke="#ff8a00" stroke-opacity="0.18" stroke-width="2"/><polyline points="0,111 206,127 319,116 530,132 636,107 805,120 1009,110 1197,138 1375,111" fill="none" stroke="#ff8a00" stroke-opacity="0.26" stroke-width="3"/><polyline points="0,126 180,157 299,160 404,145 567,125 720,122 910,149 1127,126 1259,126" fill="none" stroke="#ff8a00" stroke-opacity="0.33999999999999997" stroke-width="1"/><polyline points="0,232 161,226 286,250 486,277 647,294 843,288 1030,274 1158,251 1293,232" fill="none" stroke="#ff8a00" stroke-opacity="0.42" stroke-width="2"/><polyline points="0,166 149,191 363,216 499,204 661,176 788,174 972,185 1143,165 1246,166" fill="none" stroke="#ff8a00" stroke-opacity="0.18" stroke-width="3"/><polyline points="0,188 190,249 382,246 498,248 690,223 828,199 971,199 1102,178 1279,188" fill="none" stroke="#ff8a00" stroke-opacity="0.26" stroke-width="1"/><polyline points="0,201 116,236 244,242 359,237 455,213 598,224 784,205 938,199 1121,201" fill="none" stroke="#ff8a00" stroke-opacity="0.33999999999999997" stroke-width="2"/><polyline points="0,299 119,315 333,316 545,318 714,295 840,273 1017,292 1174,294 1305,299" fill="none" stroke="#ff8a00" stroke-opacity="0.42" stroke-width="3"/><polyline points="0,355 142,317 324,298 420,318 586,331 699,347 855,352 1038,334 1219,355" fill="none" stroke="#ff8a00" stroke-opacity="0.18" stroke-width="1"/><polyline points="0,360 218,332 365,343 504,366 655,390 847,409 995,393 1211,387 1308,360" fill="none" stroke="#ff8a00" stroke-opacity="0.26" stroke-width="2"/><polyline points="0,294 161,374 317,358 495,358 674,353 784,339 900,325 1110,309 1286,294" fill="none" stroke="#ff8a00" stroke-opacity="0.33999999999999997" stroke-width="3"/><polyline points="0,416 90,393 268,416 379,441 499,437 640,439 775,438 950,415 1141,416" fill="none" stroke="#ff8a00" stroke-opacity="0.42" stroke-width="1"/><polyline points="0,425 111,432 241,414 363,387 491,396 700,419 827,430 1038,444 1217,425" fill="none" stroke="#ff8a00" stroke-opacity="0.18" stroke-width="2"/><polyline points="0,426 123,413 216,436 332,441 457,440 596,464 740,437 894,422 1058,426" fill="none" stroke="#ff8a00" stroke-opacity="0.26" stroke-width="3"/><polyline points="0,430 173,447 370,472 493,447 673,448 870,472 1088,452 1216,457 1436,430" fill="none" stroke="#ff8a00" stroke-opacity="0.33999999999999997" stroke-width="1"/><polyline points="0,552 136,497 227,518 355,501 481,503 601,510 706,502 919,524 1036,552" fill="none" stroke="#ff8a00" stroke-opacity="0.42" stroke-width="2"/><polyline points="0,551 104,499 242,488 342,509 457,513 662,520 759,540 865,540 1038,551" fill="none" stroke="#ff8a00" stroke-opacity="0.18" stroke-width="3"/><polyline points="0,590 141,552 301,552 521,558 733,562 886,578 1042,585 1183,610 1387,590" fill="none" stroke="#ff8a00" stroke-opacity="0.26" stroke-width="1"/></g><defs><filter id="g"><feGaussianBlur stdDeviation="0.4"/></filter></defs></svg>