<svg xmlns="http://www.w3.org/2000/svg" width="1200" height="360" viewBox="0 0 1200 360"><polyline points="1170,30 900,30 850,44" fill="none" stroke="#00c8ff" stroke-opacity=".16" stroke-width="1"/><polyline points="1170,48 888,48 838,62" fill="none" stroke="#00c8ff" stroke-opacity=".16" stroke-width="2"/><polyline points="1170,66 876,66 826,80" fill="none" stroke="#00c8ff" stroke-opacity=".16" stroke-width="3"/><polyline points="1170,84 864,84 814,98" fill="none" stroke="#00c8ff" stroke-opacity=".16" stroke-width="1"/><polyline points="1170,102 852,102 802,116" fill="none" stroke="#00c8ff" stroke-opacity=".16" stroke-width="2"/><polyline points="1170,120 840,120 790,134" fill="none" stroke="#00c8ff" stroke-opacity=".16" stroke-width="3"/><polyline points="1170,138 828,138 778,152" fill="none" stroke="#00c8ff" stroke-opacity=".16" stroke-width="1"/><polyline points="1170,156 816,156 766,170" fill="none" stroke="#00c8ff" stroke-opacity=".16" stroke-width="2"/><polyline points="1170,174 804,174 754,188" fill="none" stroke="#00c8ff" stroke-opacity=".16" stroke-width="3"/><polyline points="1170,192 792,192 742,206" fill="none" stroke="#00c8ff" stroke-opacity=".16" stroke-width="1"/><polyline points="1170,210 780,210 730,224" fill="none" stroke="#00c8ff" stroke-opacity=".16" stroke-width="2"/><polyline points="1170,228 768,228 718,242" fill="none" stroke="#00c8ff" stroke-opacity=".16" stroke-width="3"/><polyline points="1170,246 756,246 706,260" fill="none" stroke="#00c8ff" stroke-opacity=".16" stroke-width="1"/><polyline points="1170,264 744,264 694,278" fill="none" stroke="#00c8ff" stroke-opacity=".16" stroke-width="2"/><polyline points="1170,282 732,282 682,296" fill="none" stroke="#00c8ff" stroke-opacity=".16" stroke-width="3"/><polyline points="1170,300 720,300 670,314" fill="none" stroke="#00c8ff" stroke-opacity=".16" stroke-width="1"/></svg>