<svg xmlns="http://www.w3.org/2000/svg" width="1200" height="360" viewBox="0 0 1200 360"><polyline points="30,30 300,30 350,44" fill="none" stroke="#ff8a00" stroke-opacity=".16" stroke-width="1"/><polyline points="30,48 312,48 362,62" fill="none" stroke="#ff8a00" stroke-opacity=".16" stroke-width="2"/><polyline points="30,66 324,66 374,80" fill="none" stroke="#ff8a00" stroke-opacity=".16" stroke-width="3"/><polyline points="30,84 336,84 386,98" fill="none" stroke="#ff8a00" stroke-opacity=".16" stroke-width="1"/><polyline points="30,102 348,102 398,116" fill="none" stroke="#ff8a00" stroke-opacity=".16" stroke-width="2"/><polyline points="30,120 360,120 410,134" fill="none" stroke="#ff8a00" stroke-opacity=".16" stroke-width="3"/><polyline points="30,138 372,138 422,152" fill="none" stroke="#ff8a00" stroke-opacity=".16" stroke-width="1"/><polyline points="30,156 384,156 434,170" fill="none" stroke="#ff8a00" stroke-opacity=".16" stroke-width="2"/><polyline points="30,174 396,174 446,188" fill="none" stroke="#ff8a00" stroke-opacity=".16" stroke-width="3"/><polyline points="30,192 408,192 458,206" fill="none" stroke="#ff8a00" stroke-opacity=".16" stroke-width="1"/><polyline points="30,210 420,210 470,224" fill="none" stroke="#ff8a00" stroke-opacity=".16" stroke-width="2"/><polyline points="30,228 432,228 482,242" fill="none" stroke="#ff8a00" stroke-opacity=".16" stroke-width="3"/><polyline points="30,246 444,246 494,260" fill="none" stroke="#ff8a00" stroke-opacity=".16" stroke-width="1"/><polyline points="30,264 456,264 506,278" fill="none" stroke="#ff8a00" stroke-opacity=".16" stroke-width="2"/><polyline points="30,282 468,282 518,296" fill="none" stroke="#ff8a00" stroke-opacity=".16" stroke-width="3"/><polyline points="30,300 480,300 530,314" fill="none" stroke="#ff8a00" stroke-opacity=".16" stroke-width="1"/></svg>